# xmcd
#
# Track frame offsets:
#	150
#	12838
#	22936
#	37472
#	52829
#	65093
#	80106
#	99321
#	111311
#	128282
#	142421
#	154937
#	165994
#	176006
#
# Disc length: 2527 seconds
#
# Revision: 7
# Processed by: cddbd v1.5.2PL0 Copyright (c) Steve Scherf et al.
# Submitted via: EZCDAudioConverter 2.1.7.1
#
DISCID=ba09dd0e
DTITLE=V/A - Red Hot And Regal
DYEAR=2009
DGENRE=MOJO
TTITLE0=The Cribs - Girls Like Mystery
TTITLE1=The Kills - U.R.A. Fever
TTITLE2=Jason Lytle - Yours Truly, The Commuter
TTITLE3=Clinic - Tomorrow
TTITLE4=Merle Haggard - Sing Me Back Home
TTITLE5=Woody Guthrie - Vigilante Man
TTITLE6=The Band - Daniel And The Sacred Harp [Alternate Take]
TTITLE7=Maddox Brothers And Rose - When God Dips His Love In My Heart
TTITLE8=My Morning Jacket - Touch Me I'm Going To Scream (Part 1)
TTITLE9=Dan Auerbach - The Prowl
TTITLE10=Soledad Brothers - Crooked Crown
TTITLE11=Tampa Red - It Hurts Me Too
TTITLE12=Little Willie John - Need Your Love So Bad
TTITLE13=Bukka White - Shake 'Em On Down
EXTD=
EXTT0=
EXTT1=
EXTT2=
EXTT3=
EXTT4=
EXTT5=
EXTT6=
EXTT7=
EXTT8=
EXTT9=
EXTT10=
EXTT11=
EXTT12=
EXTT13=
PLAYORDER=
